<svg xmlns="http://www.w3.org/2000/svg" viewBox="0 0 800 600" role="img" aria-label="戸建てイメージ（イラスト・プレースホルダー）">
  <defs>
    <linearGradient id="sky" x1="0%" y1="0%" x2="0%" y2="100%">
      <stop offset="0%" stop-color="#0b1226"/>
      <stop offset="55%" stop-color="#1c2440"/>
      <stop offset="82%" stop-color="#4a3a52"/>
      <stop offset="100%" stop-color="#caa06b"/>
    </linearGradient>
    <linearGradient id="grass" x1="0%" y1="0%" x2="0%" y2="100%">
      <stop offset="0%" stop-color="#20301f"/>
      <stop offset="100%" stop-color="#141f16"/>
    </linearGradient>
  </defs>
  <rect width="800" height="600" fill="url(#sky)"/>
  <circle cx="660" cy="110" r="46" fill="#f3d9a4" opacity="0.9"/>
  <circle cx="660" cy="110" r="72" fill="#f3d9a4" opacity="0.2"/>
  <rect x="0" y="452" width="800" height="148" fill="url(#grass)"/>
  <path d="M560,600 L630,452 L700,452 L680,600 Z" fill="#2a2f3a"/>
  <path d="M572,600 L636,452 L654,452 L622,600 Z" fill="#3a4050"/>
  <ellipse cx="330" cy="466" rx="185" ry="16" fill="rgba(0,0,0,0.35)"/>
  <g>
    <ellipse cx="638" cy="440" rx="34" ry="10" fill="rgba(0,0,0,0.3)"/>
    <rect x="630" y="380" width="16" height="62" fill="#4a3826"/>
    <circle cx="638" cy="360" r="34" fill="#2c4526"/>
    <circle cx="614" cy="378" r="26" fill="#33502b"/>
    <circle cx="662" cy="378" r="26" fill="#33502b"/>
  </g>
  <rect x="205" y="330" width="250" height="136" fill="#e7d9bc"/>
  <rect x="205" y="330" width="250" height="10" fill="#d4c19c"/>
  <polygon points="188,330 330,238 472,330" fill="#8f4530"/>
  <polygon points="188,330 330,238 330,250 200,332" fill="#6b2f1f" opacity="0.55"/>
  <rect x="392" y="255" width="24" height="55" fill="#6b2f1f"/>
  <rect x="392" y="255" width="24" height="10" fill="#232733"/>
  <rect x="300" y="378" width="56" height="88" fill="#5c3623"/>
  <circle cx="345" cy="424" r="3.5" fill="#f3e6c8"/>
  <g>
    <rect x="228" y="356" width="46" height="42" fill="#ffdb8a"/>
    <rect x="386" y="356" width="46" height="42" fill="#ffdb8a"/>
  </g>
  <g fill="none" stroke="#3a2f22" stroke-width="2">
    <rect x="228" y="356" width="46" height="42"/>
    <line x1="251" y1="356" x2="251" y2="398"/>
    <line x1="228" y1="377" x2="274" y2="377"/>
    <rect x="386" y="356" width="46" height="42"/>
    <line x1="409" y1="356" x2="409" y2="398"/>
    <line x1="386" y1="377" x2="432" y2="377"/>
  </g>
  <circle cx="251" cy="377" r="40" fill="#ffdb8a" opacity="0.18"/>
  <circle cx="409" cy="377" r="40" fill="#ffdb8a" opacity="0.18"/>
  <rect x="224" y="398" width="54" height="10" fill="#4a3826"/>
  <rect x="382" y="398" width="54" height="10" fill="#4a3826"/>
  <g fill="#233920">
    <circle cx="222" cy="452" r="16"/>
    <circle cx="246" cy="458" r="13"/>
    <circle cx="440" cy="452" r="16"/>
    <circle cx="462" cy="458" r="13"/>
  </g>
</svg>
